<?xml version="1.0" encoding="UTF-8"?>
<svg width="884px" height="160px" viewBox="0 0 884 160" version="1.1" xmlns="http://www.w3.org/2000/svg" xmlns:xlink="http://www.w3.org/1999/xlink">
    <title>Group 19</title>
    <g id="Page-1" stroke="none" stroke-width="1" fill="none" fill-rule="evenodd">
        <g id="Group-19">
            <path d="M759.548852,159.360262 L773.48459,154.959475 L773.48459,38.9085902 L759.548852,43.309377 L759.548852,159.360262 Z M597.851803,88.9828197 C606.64918,88.9828197 614.796066,92.8970492 620.010492,99.4203279 L625.712787,86.2103607 C618.219016,79.0347541 608.278033,75.6099672 597.851803,75.6099672 C573.736393,75.6099672 557.117377,94.6908852 557.28,115.728787 C557.442623,138.560787 575.365246,157.152787 597.851803,157.152787 C609.256393,157.152787 617.89377,153.728 624.40918,148.998295 L624.40918,132.852984 C617.565902,139.702557 607.627541,143.779672 598.992787,143.779672 C585.956721,143.779672 571.291803,133.179016 571.291803,115.728787 C571.291803,99.5834754 584.002623,88.9828197 597.851803,88.9828197 Z M691.045246,75.6099672 C666.916721,75.6099672 652.894426,94.6908852 652.894426,115.728787 C652.894426,138.560787 670.990164,157.152787 693.489836,157.152787 C704.902295,157.152787 713.542295,153.728 720.065574,148.998295 L720.065574,132.852984 C713.217049,139.702557 703.27082,143.779672 694.63082,143.779672 C683.055738,143.779672 670.339672,136.603803 667.729836,121.436852 L729.193443,121.436852 L729.193443,116.055082 C729.193443,93.549377 714.358033,75.6099672 691.045246,75.6099672 Z M842.47082,75.6099672 C820.002623,75.6099672 801.767869,93.8754098 801.767869,116.381377 C801.767869,138.887082 820.002623,157.152787 842.47082,157.152787 C864.939016,157.152787 883.17377,138.887082 883.17377,116.381377 C883.17377,93.8754098 864.939016,75.6099672 842.47082,75.6099672 Z M691.113443,88.8553443 C702.027541,88.8553443 713.592131,95.7340328 714.567869,108.999607 L667.659016,108.999607 C668.634754,95.7340328 680.199344,88.8553443 691.113443,88.8553443 Z M842.402623,143.631251 C827.276066,143.631251 815.01377,131.36918 815.01377,116.243148 C815.01377,101.117377 827.276066,88.8553443 842.402623,88.8553443 C857.52918,88.8553443 869.791504,101.117377 869.791504,116.243148 C869.801967,123.51082 866.921967,130.483934 861.780984,135.62282 C856.642623,140.761705 849.67082,143.643279 842.402623,143.631251 Z" id="Fill-1" fill="#FFFFFF"></path>
            <path d="M462.903607,139.905836 C461.017705,139.905836 459.131803,139.526557 457.245902,138.767475 C455.36,138.008656 453.796721,136.881836 452.556066,135.387279 C451.312787,133.892459 450.69377,132.041443 450.69377,129.833705 C450.69377,127.074361 451.648525,124.418361 453.55541,121.865705 C455.464918,119.313311 458.142951,117.232 461.592131,115.622295 L462.971803,114.932459 L462.420984,114.311607 C461.961967,113.805639 461.363934,113.161967 460.626885,112.380066 C459.892459,111.598164 459.236721,110.666754 458.662295,109.586098 C458.085246,108.50518 457.799344,107.297836 457.799344,105.964066 C457.799344,104.354623 458.326557,102.905705 459.38623,101.618098 C460.443279,100.33023 461.914754,99.3070164 463.800656,98.5481967 C465.686557,97.7891148 467.847869,97.4098361 470.28459,97.4098361 C472.401311,97.4098361 474.263607,97.7432131 475.874098,98.4102295 C477.481967,99.0769836 478.735738,99.9737705 479.632787,101.10059 C480.529836,102.22741 480.978361,103.503738 480.978361,104.929311 C480.978361,106.999082 480.322623,108.631607 479.011148,109.82741 C477.702295,111.023213 475.918689,112.035148 473.665574,112.862951 L472.146885,113.41482 L473.52918,114.863475 C474.814426,116.151344 476.125902,117.485115 477.460984,118.864787 C478.793443,120.244459 480.057705,121.57823 481.25377,122.866098 L482.497049,124.24577 L483.462295,123.348984 C484.382951,122.475016 485.16459,121.566689 485.807213,120.624 C486.452459,119.681049 486.958689,118.795803 487.325902,117.968 C487.693115,117.140197 487.876721,116.47318 487.876721,115.967213 C487.876721,115.277377 487.682623,114.74859 487.291803,114.38059 C486.900984,114.01259 486.428852,113.759738 485.87541,113.62177 C485.55541,113.437902 485.243279,113.265311 484.944262,113.104262 C484.645246,112.943475 484.495738,112.67882 484.495738,112.311082 C484.495738,111.851016 484.702951,111.575082 485.117377,111.483279 C485.531803,111.391213 485.99082,111.345311 486.497049,111.345311 C487.095082,111.345311 487.761311,111.391213 488.498361,111.483279 C489.232787,111.575082 489.993443,111.667148 490.775082,111.759213 C491.556721,111.851016 492.338361,111.89718 493.12,111.89718 C494.085246,111.89718 495.108197,111.759213 496.191475,111.483279 C497.272131,111.207344 498.339672,110.95423 499.399344,110.724197 C500.456393,110.494426 501.353443,110.379279 502.087869,110.379279 C502.410492,110.379279 502.67541,110.471344 502.882623,110.655213 C503.089836,110.839344 503.192131,111.046295 503.192131,111.276328 C503.192131,111.69023 502.984918,112.081049 502.570492,112.449049 C502.158689,112.817049 501.605246,113.04682 500.91541,113.138885 C499.443934,113.368918 498.203279,113.840262 497.19082,114.55318 C496.178361,115.265836 495.304918,115.990295 494.567869,116.726295 C494.017049,117.232 493.384918,117.818492 492.671475,118.485246 C491.958033,119.152262 491.223607,119.842098 490.462951,120.555016 C489.704918,121.267934 488.93377,121.969311 488.152131,122.659148 C487.370492,123.348984 486.622951,124.004459 485.912131,124.625311 C485.198689,125.246164 484.590164,125.809574 484.083934,126.315279 L485.32459,127.83318 C486.796066,129.626754 488.188852,131.133115 489.497705,132.351738 C490.80918,133.570623 492.154754,134.179934 493.534426,134.179934 C494.363279,134.179934 495.247213,134.09941 496.191475,133.938361 C497.133115,133.777574 498.064262,133.51318 498.984918,133.14518 C499.213115,133.053115 499.467541,132.961049 499.742951,132.869246 C500.018361,132.77718 500.29377,132.731279 500.571803,132.731279 C500.939016,132.731279 501.227541,132.788721 501.432131,132.903607 C501.639344,133.018754 501.744262,133.283148 501.744262,133.697049 C501.744262,134.340984 501.248525,135.145705 500.259672,136.111475 C499.27082,137.077508 497.925246,137.939672 496.225574,138.698492 C494.523279,139.457574 492.590164,139.836852 490.428852,139.836852 C488.637377,139.836852 487.08459,139.60682 485.773115,139.147016 C484.461639,138.687213 483.278689,137.997115 482.219016,137.077508 C481.161967,136.157639 480.036721,134.984918 478.840656,133.559082 L477.597377,132.110426 L477.182951,132.524328 C475.850492,134.087869 474.413115,135.421639 472.873443,136.525639 C471.331148,137.629377 469.73377,138.468721 468.078689,139.043672 C466.420984,139.618361 464.697705,139.905836 462.903607,139.905836 Z M467.939672,133.352131 C469.088525,133.352131 470.308197,133.202623 471.596066,132.903607 C472.883934,132.604852 474.103607,131.880393 475.252459,130.730492 L475.735082,130.247607 L474.701639,128.936918 C473.182951,127.09718 471.65377,125.280525 470.114098,123.486951 C468.571803,121.693377 466.974426,119.853639 465.319344,117.968 L464.490492,117.00223 L463.249836,117.761049 C462.37377,118.174951 461.683934,118.749902 461.180328,119.485639 C460.674098,120.221639 460.317377,121.026361 460.110164,121.900328 C459.902951,122.774033 459.800656,123.693902 459.800656,124.659672 C459.800656,127.327213 460.535082,129.442885 462.006557,131.006426 C463.478033,132.57023 465.455738,133.352131 467.939672,133.352131 Z M470.767213,111.759213 L471.527869,111.069115 C472.170492,110.56341 472.653115,109.746885 472.975738,108.620328 C473.298361,107.493508 473.458361,106.355148 473.458361,105.205246 C473.505574,103.825574 473.251148,102.59541 472.700328,101.514492 C472.146885,100.433836 471.228852,99.8932459 469.940984,99.8932459 C469.112131,99.8932459 468.343607,100.238164 467.630164,100.928262 C466.916721,101.618098 466.56,102.491803 466.56,103.549639 C466.56,104.791344 466.709508,105.84918 467.008525,106.723148 C467.307541,107.596852 467.687869,108.30977 468.146885,108.861639 C468.605902,109.413508 469.020328,109.919475 469.387541,110.379279 L470.767213,111.759213 Z" id="Fill-2" fill="#FBCC5C"></path>
            <path d="M298.575738,49.0497049 C298.024918,49.0497049 297.610492,48.9922623 297.335082,48.877377 C297.059672,48.7622295 296.920656,48.5668197 296.920656,48.2908852 C296.920656,47.9690492 297.059672,47.7274754 297.335082,47.5666885 C297.610492,47.4056393 298.140328,47.2330492 298.921967,47.0491803 C301.083279,46.5432131 302.601967,45.876459 303.47541,45.0486557 C304.348852,44.2205902 304.946885,43.2548197 305.269508,42.151082 L314.856393,12.4175738 C315.318033,11.0379016 315.569836,9.86518033 315.617049,8.89914754 C315.661639,7.93337705 315.352131,7.16301639 314.685902,6.58806557 C314.017049,6.01337705 312.810492,5.6797377 311.063607,5.58793443 C310.281967,5.49586885 309.636721,5.34636066 309.130492,5.13940984 C308.626885,4.93245902 308.372459,4.64498361 308.372459,4.27698361 C308.372459,3.81718033 308.603279,3.5412459 309.062295,3.44918033 C309.521311,3.35737705 309.867541,3.31121311 310.098361,3.31121311 C311.339016,3.31121311 312.487869,3.33429508 313.547541,3.38019672 C314.60459,3.42636066 315.582951,3.48380328 316.477377,3.55278689 C317.374426,3.62177049 318.21377,3.65613115 318.99541,3.65613115 C319.365246,3.65613115 319.708852,3.7597377 320.031475,3.96668852 C320.354098,4.17363934 320.605902,4.46111475 320.789508,4.82911475 L336.587541,38.0807869 C336.679344,38.264918 336.876066,38.5293115 337.175082,38.8742295 C337.474098,39.2191475 337.739016,39.3914754 337.967213,39.3914754 C338.198033,39.3914754 338.497049,38.9316721 338.864262,38.0118033 C339.047869,37.5058361 339.370492,36.5631475 339.829508,35.1834754 C340.291148,33.803541 340.818361,32.1594754 341.416393,30.2507541 C342.014426,28.3420328 342.625574,26.3530492 343.24459,24.2832787 C343.86623,22.2137705 344.45377,20.2476066 345.00459,18.3850492 C345.55541,16.5222295 346.017049,14.9471475 346.384262,13.6592787 C346.751475,12.3716721 346.982295,11.5438689 347.074098,11.1758689 C347.441311,9.56616393 347.189508,8.37036066 346.316066,7.58845902 C345.442623,6.80655738 343.900328,6.25468852 341.694426,5.93285246 C340.451148,5.74872131 339.829508,5.312 339.829508,4.62216393 C339.829508,4.34622951 340.073443,4.13901639 340.556066,4.00104918 C341.038689,3.86308197 341.55541,3.79409836 342.10623,3.79409836 C343.349508,3.79409836 344.556066,3.8402623 345.728525,3.93206557 C346.900984,4.02413115 348.154754,4.07003279 349.489836,4.07003279 C350.407869,4.07003279 351.213115,4.03567213 351.902951,3.96668852 C352.592787,3.89770492 353.363934,3.82872131 354.21377,3.7597377 C355.06623,3.6907541 356.13377,3.65613115 357.421639,3.65613115 C358.481311,3.65613115 359.008525,3.9092459 359.008525,4.41521311 C359.008525,4.73704918 358.780328,5.02452459 358.318689,5.27737705 C357.859672,5.5304918 357.238033,5.70281967 356.456393,5.79488525 C355.307541,5.88668852 354.397377,6.05927869 353.731148,6.31213115 C353.064918,6.5652459 352.52459,7.0135082 352.110164,7.65744262 C351.695738,8.30137705 351.236721,9.2212459 350.730492,10.4170492 C350.638689,10.6929836 350.339672,11.5551475 349.833443,13.0040656 C349.327213,14.4527213 348.708197,16.2350164 347.971148,18.3504262 C347.234098,20.4660984 346.452459,22.7197377 345.62623,25.1113443 C344.797377,27.5026885 344.015738,29.8024918 343.281311,32.0099672 C342.544262,34.2174426 341.912131,36.1261639 341.382295,37.7358689 C340.855082,39.3455738 340.519344,40.4034098 340.382951,40.909377 C340.199344,41.6451148 340.141639,42.2316066 340.209836,42.6685902 C340.278033,43.1053115 340.427541,43.5997377 340.658361,44.1516066 C340.93377,44.795541 341.290492,45.2668852 341.728525,45.5659016 C342.163934,45.864918 342.567869,46.1523934 342.935082,46.4283279 C343.302295,46.7042623 343.614426,46.9686557 343.86623,47.2215082 C344.120656,47.474623 344.246557,47.831082 344.246557,48.2908852 C344.246557,48.4750164 344.188852,48.5899016 344.073443,48.6358033 C343.958033,48.6819672 343.832131,48.7047869 343.693115,48.7047869 C342.866885,48.7047869 342.119344,48.7278689 341.453115,48.7737705 C340.784262,48.8199344 340.209836,48.877377 339.727213,48.9463607 C339.24459,49.0153443 338.796066,49.0497049 338.381639,49.0497049 C337.647213,49.0497049 337.070164,48.9348197 336.658361,48.7047869 C336.243934,48.4750164 335.853115,47.9918689 335.485902,47.2561311 C334.657049,45.508459 333.817705,43.6918033 332.967869,41.8061639 C332.11541,39.9205246 331.265574,37.9887213 330.413115,36.0112787 C329.563279,34.0335738 328.700328,32.0558689 327.826885,30.0784262 C326.953443,28.1007213 326.066885,26.1345574 325.169836,24.1799344 C324.27541,22.2253115 323.388852,20.3165902 322.51541,18.4540328 C321.641967,16.5912131 320.744918,14.8322623 319.824262,13.1763934 C319.548852,12.6704262 319.260328,12.2680656 318.961311,11.9693115 C318.662295,11.6702951 318.4,11.5207869 318.16918,11.5207869 C317.938361,11.5207869 317.662951,11.7161967 317.340328,12.1072787 C317.020328,12.4980984 316.742295,13.0845902 316.514098,13.8662295 C316.052459,15.568 315.488525,17.522623 314.822295,19.7303607 C314.156066,21.9378361 313.46623,24.2948197 312.752787,26.8013115 C312.039344,29.3080656 311.31541,31.860459 310.580984,34.4590164 C309.843934,37.0575738 309.177705,39.5984262 308.579672,42.0820984 C308.257049,43.3699672 308.45377,44.439082 309.167213,45.2899672 C309.878033,46.1408525 311.108197,46.7501639 312.857705,47.1181639 C313.547541,47.2561311 314.05377,47.4056393 314.37377,47.5666885 C314.696393,47.7274754 314.856393,47.9690492 314.856393,48.2908852 C314.856393,48.5668197 314.64918,48.7622295 314.237377,48.877377 C313.822951,48.9922623 313.340328,49.0497049 312.786885,49.0497049 C311.638033,49.0497049 310.706885,49.0153443 309.993443,48.9463607 C309.28,48.877377 308.626885,48.8199344 308.028852,48.7737705 C307.43082,48.7278689 306.740984,48.7047869 305.959344,48.7047869 C305.038689,48.7047869 304.233443,48.7278689 303.543607,48.7737705 C302.85377,48.8199344 302.140328,48.877377 301.405902,48.9463607 C300.668852,49.0153443 299.727213,49.0497049 298.575738,49.0497049 Z" id="Fill-3" fill="#35D07F"></path>
            <path d="M351.627541,49.0497049 C351.076721,49.0497049 350.662295,49.0038033 350.386885,48.9117377 C350.108852,48.8199344 349.972459,48.6129836 349.972459,48.2908852 C349.972459,47.9228852 350.190164,47.6584918 350.628197,47.4974426 C351.063607,47.3366557 351.674754,47.1871475 352.456393,47.0491803 C354.156066,46.7273443 355.422951,46.2098361 356.24918,45.496918 C357.078033,44.784 357.744262,43.576918 358.250492,41.8751475 L367.700984,10.8309508 C368.254426,9.17508197 368.254426,8.00236066 367.700984,7.31252459 C367.150164,6.62268852 366.114098,6.11672131 364.598033,5.79488525 C363.908197,5.65691803 363.446557,5.47278689 363.218361,5.24301639 C362.987541,5.01298361 362.872131,4.73704918 362.872131,4.41521311 C362.872131,4.13901639 363.089836,3.94360656 363.527869,3.82872131 C363.965902,3.71383607 364.459016,3.65613115 365.009836,3.65613115 C365.516066,3.65613115 366.539016,3.6907541 368.081311,3.7597377 C369.620984,3.82872131 371.105574,3.86308197 372.529836,3.86308197 L383.499016,3.86308197 C386.628197,3.86308197 388.983607,3.72511475 390.570492,3.44918033 C392.157377,3.1732459 393.043934,3.03527869 393.227541,3.03527869 C393.455738,3.03527869 393.605246,3.09272131 393.676066,3.20786885 C393.744262,3.3227541 393.778361,3.49534426 393.778361,3.72511475 C393.778361,3.9092459 393.744262,4.11619672 393.676066,4.34622951 C393.605246,4.576 393.526557,4.87501639 393.434754,5.24301639 C393.203934,6.02491803 392.91541,7.02504918 392.571803,8.24393443 C392.225574,9.46255738 391.984262,10.5319344 391.847869,11.4518033 C391.800656,11.6818361 391.708852,11.9346885 391.572459,12.210623 C391.433443,12.4865574 391.134426,12.6245246 390.67541,12.6245246 C390.352787,12.6245246 390.145574,12.4521967 390.05377,12.1072787 C389.961967,11.7620984 389.914754,11.4059016 389.914754,11.0379016 C389.914754,10.2100984 389.904262,9.42819672 389.880656,8.69219672 C389.857049,7.95645902 389.615738,7.35842623 389.156721,6.89862295 C388.925902,6.66859016 388.605902,6.47318033 388.191475,6.31213115 C387.777049,6.15134426 387.247213,6.07081967 386.60459,6.07081967 L376.668852,6.07081967 C375.79541,6.07081967 375.186885,6.27777049 374.840656,6.69167213 C374.497049,7.10557377 374.208525,7.58845902 373.980328,8.14032787 C373.933115,8.27829508 373.702295,8.95685246 373.290492,10.1754754 C372.876066,11.3943607 372.403934,12.8314754 371.874098,14.487082 C371.346885,16.1429508 370.840656,17.7526557 370.358033,19.3161967 C369.87541,20.88 369.495082,22.0758033 369.219672,22.9036066 C369.127869,23.2716066 369.104262,23.6508852 369.151475,24.0419672 C369.196066,24.4327869 369.379672,24.6281967 369.702295,24.6281967 L379.016393,24.4212459 C380.946885,24.3294426 382.580984,23.4785574 383.913443,21.8688525 C384.236066,21.5008525 384.56918,21.1674754 384.912787,20.868459 C385.259016,20.5697049 385.523934,20.4201967 385.707541,20.4201967 C385.938361,20.4201967 386.132459,20.523541 386.292459,20.7304918 C386.455082,20.9374426 386.465574,21.2018361 386.32918,21.5239344 C385.547541,23.2716066 384.936393,24.7777049 384.500984,26.0424918 C384.062951,27.3072787 383.614426,28.8136393 383.15541,30.5613115 C383.063607,30.8831475 382.948197,31.159082 382.80918,31.3891148 C382.672787,31.6191475 382.486557,31.7340328 382.258361,31.7340328 C381.891148,31.7340328 381.62623,31.527082 381.463607,31.1131803 C381.303607,30.6992787 381.222295,30.3771803 381.222295,30.1474098 C381.222295,28.8136393 380.980984,27.9053115 380.498361,27.4224262 C380.015738,26.9392787 379.407213,26.6748852 378.670164,26.6289836 C378.163934,26.583082 377.348197,26.548459 376.220328,26.525377 C375.095082,26.5025574 374.001311,26.4910164 372.944262,26.4910164 L370.735738,26.4910164 C369.954098,26.4910164 369.277377,26.5943607 368.702951,26.8013115 C368.125902,27.0082623 367.700984,27.6178361 367.425574,28.6295082 L363.908197,40.909377 C363.446557,42.472918 363.286557,43.6571803 363.425574,44.4621639 C363.561967,45.2668852 363.986885,45.8302951 364.700328,46.1523934 C365.41377,46.4742295 366.368525,46.7732459 367.56459,47.0491803 C368.254426,47.1871475 368.713443,47.3366557 368.944262,47.4974426 C369.172459,47.6584918 369.287869,47.9228852 369.287869,48.2908852 C369.287869,48.6129836 369.080656,48.8199344 368.66623,48.9117377 C368.254426,49.0038033 367.771803,49.0497049 367.218361,49.0497049 C366.069508,49.0497049 365.114754,49.0038033 364.356721,48.9117377 C363.596066,48.8199344 362.885246,48.7394098 362.216393,48.6704262 C361.550164,48.6014426 360.758033,48.5668197 359.837377,48.5668197 C358.274098,48.5668197 356.952131,48.6473443 355.871475,48.8083934 C354.788197,48.9691803 353.374426,49.0497049 351.627541,49.0497049 Z" id="Fill-4" fill="#35D07F"></path>
            <path d="M395.916066,49.0497049 C395.365246,49.0497049 394.95082,48.9922623 394.67541,48.877377 C394.4,48.7622295 394.260984,48.5668197 394.260984,48.2908852 C394.260984,47.9690492 394.491803,47.7390164 394.95082,47.6010492 C395.412459,47.463082 396.031475,47.3251148 396.813115,47.1871475 C398.51541,46.8653115 399.92918,46.2788197 401.057049,45.4279344 C402.184918,44.5770492 402.977049,43.3238033 403.436066,41.6681967 L411.853115,12.1416393 C412.498361,9.79619672 412.77377,8.24393443 412.681967,7.48511475 C412.590164,6.72603279 412.243934,6.3467541 411.645902,6.3467541 L405.92,6.3467541 C403.666885,6.3467541 401.930492,6.79501639 400.71082,7.69206557 C399.49377,8.58885246 398.47082,9.54308197 397.641967,10.5550164 C397.227541,11.0148197 396.849836,11.5092459 396.503607,12.0382951 C396.16,12.567082 395.837377,13.0156066 395.538361,13.3833443 C395.239344,13.7513443 394.95082,13.9352131 394.67541,13.9352131 C394.4,13.9352131 394.203279,13.8777705 394.090492,13.7628852 C393.975082,13.6477377 393.917377,13.4064262 393.917377,13.0384262 C393.917377,12.946623 393.961967,12.7165902 394.05377,12.3485902 C394.145574,11.9805902 394.331803,11.4977049 394.607213,10.8999344 C395.06623,9.98006557 395.582951,8.92222951 396.16,7.72642623 C396.734426,6.53062295 397.182951,5.33481967 397.502951,4.13901639 C397.594754,3.81718033 397.767869,3.50688525 398.022295,3.20786885 C398.274098,2.90885246 398.491803,2.75934426 398.678033,2.75934426 C398.861639,2.75934426 399.068852,2.83986885 399.297049,3.00091803 C399.527869,3.16170492 399.735082,3.35737705 399.918689,3.58714754 C400.057705,3.72511475 400.262295,3.86308197 400.540328,4.00104918 C400.815738,4.13901639 401.298361,4.24262295 401.988197,4.31160656 C402.678033,4.38059016 403.735082,4.41521311 405.161967,4.41521311 L429.788852,4.41521311 C431.215738,4.41521311 432.285902,4.36904918 432.996721,4.27698361 C433.710164,4.18518033 434.229508,4.07003279 434.549508,3.93206557 C434.872131,3.79409836 435.102951,3.65613115 435.239344,3.51816393 C435.470164,3.28839344 435.677377,3.1042623 435.860984,2.96629508 C436.04459,2.82832787 436.228197,2.75934426 436.411803,2.75934426 C436.873443,2.75934426 437.101639,3.01245902 437.101639,3.51816393 C437.101639,3.8402623 437.022951,4.18518033 436.860328,4.55318033 C436.700328,4.92091803 436.55082,5.21993443 436.411803,5.44996721 C436.183607,5.90977049 435.81377,6.88708197 435.310164,8.38190164 C434.803934,9.87645902 434.365902,11.5666885 433.998689,13.4523279 C433.951475,13.8203279 433.859672,14.0731803 433.723279,14.2111475 C433.584262,14.3491148 433.424262,14.4180984 433.240656,14.4180984 C432.918033,14.4180984 432.676721,14.2688525 432.514098,13.9698361 C432.354098,13.6708197 432.272787,13.291541 432.272787,12.8314754 C432.272787,10.7158033 431.939672,9.10609836 431.273443,8.00236066 C430.607213,6.89862295 429.398033,6.3467541 427.651148,6.3467541 L420.752787,6.3467541 C420.154754,6.3467541 419.661639,6.48472131 419.268197,6.76065574 C418.877377,7.03659016 418.510164,7.6 418.166557,8.45088525 C417.820328,9.30177049 417.39541,10.600918 416.88918,12.3485902 L408.542951,41.6681967 C408.081311,43.3238033 408.162623,44.5770492 408.784262,45.4279344 C409.403279,46.2788197 410.473443,46.8653115 411.992131,47.1871475 C412.681967,47.3251148 413.140984,47.463082 413.371803,47.6010492 C413.6,47.7390164 413.71541,47.9690492 413.71541,48.2908852 C413.71541,48.5668197 413.508197,48.7622295 413.096393,48.877377 C412.681967,48.9922623 412.199344,49.0497049 411.645902,49.0497049 C410.497049,49.0497049 409.552787,49.0153443 408.818361,48.9463607 C408.081311,48.877377 407.380984,48.8199344 406.714754,48.7737705 C406.045902,48.7278689 405.230164,48.7047869 404.264918,48.7047869 C403.207869,48.7047869 402.263607,48.7278689 401.437377,48.7737705 C400.608525,48.8199344 399.76918,48.877377 398.919344,48.9463607 C398.066885,49.0153443 397.067541,49.0497049 395.916066,49.0497049 Z" id="Fill-5" fill="#35D07F"></path>
            <path d="M469.182951,49.6705574 C468.996721,49.6705574 468.847213,49.5097705 468.734426,49.1876721 C468.619016,48.8658361 468.561311,48.4519344 468.561311,47.9459672 C468.744918,42.1969836 468.802623,36.4367213 468.734426,30.6646557 C468.663607,24.8928525 468.514098,19.1323279 468.285902,13.3833443 C468.238689,12.3716721 468.020984,11.8887869 467.630164,11.9346885 C467.239344,11.9805902 466.79082,12.532459 466.28459,13.5902951 C464.167869,17.7754754 462.132459,21.949377 460.178361,26.1114754 C458.224262,30.2738361 456.348852,34.4474754 454.557377,38.6326557 C453.636721,40.7942295 453.062295,42.4500984 452.831475,43.5997377 C452.600656,44.7496393 452.637377,45.5543607 452.936393,46.0144262 C453.23541,46.4742295 453.704918,46.7732459 454.350164,46.9112131 C455.04,47.0032787 455.556721,47.1412459 455.902951,47.3251148 C456.246557,47.5089836 456.419672,47.7620984 456.419672,48.0839344 C456.419672,48.3598689 456.165246,48.5668197 455.659016,48.7047869 C455.15541,48.8427541 454.625574,48.9117377 454.074754,48.9117377 C452.923279,48.9117377 451.992131,48.888918 451.278689,48.8427541 C450.567869,48.7968525 449.878033,48.7622295 449.20918,48.7394098 C448.542951,48.7163279 447.68,48.7047869 446.622951,48.7047869 C445.841311,48.7047869 445.232787,48.7394098 444.794754,48.8083934 C444.356721,48.877377 443.853115,48.9463607 443.276066,49.0153443 C442.701639,49.0843279 441.838689,49.1186885 440.689836,49.1186885 C439.585574,49.1186885 439.034754,48.888918 439.034754,48.4288525 C439.034754,48.1070164 439.241967,47.842623 439.656393,47.6356721 C440.068197,47.428459 440.66623,47.2561311 441.447869,47.1181639 C442.782951,46.8881311 443.931803,46.5088525 444.897049,45.9798033 C445.864918,45.4510164 446.796066,44.6232131 447.693115,43.4963934 C448.590164,42.3695738 449.565902,40.7942295 450.622951,38.770623 L464.351475,12.0036721 C464.949508,10.8537705 465.248525,9.84209836 465.248525,8.96813115 C465.248525,8.09442623 464.823607,7.36996721 463.97377,6.79501639 C463.121311,6.22032787 461.754754,5.81770492 459.868852,5.58793443 C458.856393,5.44996721 458.156066,5.30045902 457.765246,5.13940984 C457.374426,4.97836066 457.177705,4.73704918 457.177705,4.41521311 C457.177705,4.04721311 457.442623,3.77127869 457.972459,3.58714754 C458.499672,3.40327869 459.202623,3.31121311 460.076066,3.31121311 C460.857705,3.31121311 461.938361,3.33429508 463.318033,3.38019672 C464.697705,3.42636066 466.12459,3.48380328 467.596066,3.55278689 C469.067541,3.62177049 470.28459,3.65613115 471.252459,3.65613115 C471.850492,3.65613115 472.296393,3.80563934 472.59541,4.10465574 C472.894426,4.40367213 473.091148,4.88655738 473.182951,5.55331148 C473.274754,6.22032787 473.298361,7.15147541 473.251148,8.34727869 L473.80459,37.4599344 C473.84918,38.4718689 474.069508,38.9085902 474.460328,38.770623 C474.851148,38.6326557 475.320656,38.264918 475.874098,37.6668852 C478.725246,34.4474754 481.495082,31.2626885 484.18623,28.1122623 C486.877377,24.9618361 489.568525,21.7998689 492.257049,18.6263607 C494.948197,15.4531148 497.649836,12.2565246 500.36459,9.03711475 C500.87082,8.07134426 501.261639,7.27816393 501.537049,6.65704918 C501.812459,6.03619672 502.135082,5.42688525 502.502295,4.82911475 C502.869508,4.18518033 503.352131,3.86308197 503.950164,3.86308197 L506.573115,3.86308197 C506.940328,3.86308197 507.514754,3.81718033 508.296393,3.72511475 C509.078033,3.63331148 509.883279,3.5412459 510.712131,3.44918033 C511.540984,3.35737705 512.16,3.31121311 512.574426,3.31121311 C513.125246,3.31121311 513.64459,3.40327869 514.127213,3.58714754 C514.609836,3.77127869 514.851148,4.02413115 514.851148,4.34622951 C514.851148,4.71396721 514.657049,5.02452459 514.263607,5.27737705 C513.872787,5.5304918 513.125246,5.72590164 512.023607,5.86386885 C510.643934,6.0477377 509.57377,6.27777049 508.815738,6.55370492 C508.055082,6.82963934 507.470164,7.34714754 507.055738,8.10596721 C506.641311,8.86478689 506.182295,10.0721311 505.676066,11.7277377 C504.43541,15.9588197 503.307541,20.3165902 502.295082,24.8007869 C501.282623,29.2849836 500.36459,33.7117377 499.535738,38.0807869 C498.937705,41.1622295 498.88,43.3468852 499.362623,44.6344918 C499.845246,45.9223607 500.847213,46.6811803 502.363279,46.9112131 C503.053115,47.0032787 503.525246,47.1412459 503.779672,47.3251148 C504.031475,47.5089836 504.157377,47.7620984 504.157377,48.0839344 C504.157377,48.2678033 503.950164,48.4519344 503.538361,48.6358033 C503.123934,48.8199344 502.641311,48.9117377 502.087869,48.9117377 C500.939016,48.9117377 499.939672,48.8542951 499.087213,48.7394098 C498.237377,48.6242623 497.398033,48.4978361 496.56918,48.3598689 C495.742951,48.2219016 494.798689,48.152918 493.741639,48.152918 C492.68459,48.152918 491.821639,48.2219016 491.15541,48.3598689 C490.486557,48.4978361 489.796721,48.6242623 489.083279,48.7394098 C488.372459,48.8542951 487.441311,48.9117377 486.289836,48.9117377 C485.739016,48.9117377 485.335082,48.8427541 485.083279,48.7047869 C484.831475,48.5668197 484.702951,48.3598689 484.702951,48.0839344 C484.702951,47.808 484.923279,47.5666885 485.358689,47.3594754 C485.796721,47.1525246 486.381639,46.9571148 487.118689,46.7732459 C488.590164,46.4052459 489.704918,45.8302951 490.462951,45.0486557 C491.223607,44.2667541 491.855738,43.0937705 492.361967,41.5302295 C493.51082,38.0348852 494.523279,34.8039344 495.396721,31.837377 C496.270164,28.871082 497.085902,25.9506885 497.846557,23.0761967 C498.60459,20.2017049 499.375738,17.2007869 500.157377,14.0731803 C500.24918,13.8434098 500.191475,13.7054426 499.984262,13.6592787 C499.777049,13.613377 499.559344,13.7054426 499.328525,13.9352131 L478.977049,37.528918 L470.90623,48.0149508 C470.447213,48.5668197 470.077377,48.9807213 469.801967,49.2566557 C469.526557,49.5325902 469.319344,49.6705574 469.182951,49.6705574 Z" id="Fill-6" fill="#35D07F"></path>
            <path d="M513.954098,49.6705574 C513.403279,49.6705574 512.849836,49.5213115 512.299016,49.2222951 C511.745574,48.9232787 511.299672,48.544 510.953443,48.0839344 C510.607213,47.6241311 510.436721,47.1412459 510.436721,46.6352787 C510.436721,44.9794098 510.987541,43.0594098 512.091803,40.8747541 C513.196066,38.6900984 514.735738,36.3905574 516.713443,33.9761311 C518.691148,31.5614426 520.967869,29.227541 523.543607,26.9739016 C526.027541,24.8123279 528.049836,23.191082 529.615738,22.1101639 C531.179016,21.0295082 532.327869,20.4891803 533.064918,20.4891803 C533.799344,20.4891803 534.44459,20.8110164 534.99541,21.4549508 C535.640656,22.2827541 535.926557,22.6622951 535.858361,22.5933115 C535.787541,22.5243279 535.777049,22.4897049 535.824262,22.4897049 C535.916066,22.4897049 535.994754,22.4553443 536.065574,22.3863607 C536.13377,22.317377 536.191475,22.2137705 536.236066,22.0758033 C536.881311,20.9720656 537.272131,20.3050492 537.411148,20.0752787 C537.547541,19.8452459 537.547541,19.8221639 537.411148,20.0062951 C537.686557,19.5462295 537.961967,19.3161967 538.237377,19.3161967 C538.651803,19.3161967 539.06623,19.3851803 539.480656,19.5231475 C539.892459,19.661377 540.228197,19.8452459 540.48,20.0752787 C540.731803,20.3050492 540.860328,20.535082 540.860328,20.7651148 C540.860328,20.9948852 540.697705,21.5698361 540.377705,22.4897049 L532.650492,42.9788852 C532.052459,44.5426885 532.351475,45.3245902 533.547541,45.3245902 C534.37377,45.3245902 535.375738,44.9219672 536.548197,44.1172459 C537.720656,43.3122623 538.743607,42.3349508 539.617049,41.1853115 C539.708852,41.0932459 539.81377,41.0127213 539.92918,40.9437377 C540.041967,40.8747541 540.146885,40.8403934 540.238689,40.8403934 C540.422295,40.8403934 540.548197,40.8978361 540.619016,41.0127213 C540.687213,41.1278689 540.721311,41.3232787 540.721311,41.5992131 C540.721311,41.9210492 540.398689,42.5534426 539.756066,43.4963934 C539.11082,44.439082 538.44459,45.2556066 537.754754,45.9454426 C536.466885,47.1412459 535.168525,48.0608525 533.857049,48.7047869 C532.545574,49.3487213 531.339016,49.6705574 530.234754,49.6705574 C529.775738,49.6705574 529.316721,49.5325902 528.855082,49.2566557 C528.396066,48.9807213 528.015738,48.6358033 527.716721,48.2219016 C527.417705,47.808 527.268197,47.3940984 527.268197,46.9801967 C527.268197,46.4742295 527.407213,45.9454426 527.682623,45.3935738 C527.499016,45.8074754 527.488525,45.8074754 527.648525,45.3935738 C527.808525,44.9794098 528.086557,44.3357377 528.477377,43.4617705 C528.868197,42.5880656 529.293115,41.6681967 529.752131,40.7024262 C530.211148,39.7363934 530.60459,38.8857705 530.92459,38.1497705 C531.15541,37.6438033 531.257705,37.2645246 531.236721,37.0114098 C531.213115,36.7585574 531.063607,36.7931803 530.788197,37.1150164 C527.981639,40.2423607 525.579016,42.7260328 523.577705,44.5655082 C521.576393,46.4052459 519.819016,47.7159344 518.300328,48.4978361 C516.781639,49.2797377 515.33377,49.6705574 513.954098,49.6705574 Z M517.817705,45.3245902 C518.830164,45.3245902 520.335738,44.4852459 522.337049,42.8065574 C524.335738,41.1278689 526.601967,38.7937049 529.130492,35.8043279 C530.88,33.7807213 532.259672,31.9179016 533.269508,30.2163934 C534.281967,28.514623 534.788197,27.2498361 534.788197,26.4220328 C534.788197,26.0540328 534.48918,25.6170492 533.891148,25.1113443 C533.615738,24.8813115 533.316721,24.6974426 532.994098,24.5592131 C532.674098,24.4212459 532.396066,24.3522623 532.167869,24.3522623 C531.339016,24.3522623 530.200656,24.7664262 528.752787,25.5942295 C527.302295,26.4220328 525.980328,27.4108852 524.784262,28.5605246 C523.268197,30.0322623 521.817705,31.6881311 520.438033,33.5276066 C519.058361,35.3673443 517.943607,37.1380984 517.09377,38.8396066 C516.241311,40.541377 515.816393,41.9210492 515.816393,42.9788852 C515.816393,43.6687213 516,44.2321311 516.369836,44.6691148 C516.737049,45.1060984 517.219672,45.3245902 517.817705,45.3245902 Z" id="Fill-7" fill="#35D07F"></path>
            <path d="M547.483279,49.8775082 C547.252459,49.8775082 546.998033,49.7972459 546.722623,49.6361967 C546.447213,49.4751475 546.216393,49.2681967 546.032787,49.0153443 C545.84918,48.7622295 545.757377,48.4978361 545.757377,48.2219016 C545.757377,47.6700328 545.906885,46.9686557 546.205902,46.1177705 C546.504918,45.2668852 546.885246,44.1977705 547.344262,42.9099016 L553.691803,26.3530492 C553.92,25.7550164 554.024918,25.2031475 554.001311,24.6974426 C553.977705,24.1914754 553.736393,23.9383607 553.277377,23.9383607 C552.632131,23.9383607 552,24.0188852 551.380984,24.1799344 C550.759344,24.3409836 550.287213,24.5133115 549.96459,24.6974426 C549.68918,24.8813115 549.424262,24.9156721 549.172459,24.8007869 C548.920656,24.6859016 548.792131,24.4674098 548.792131,24.1453115 C548.792131,23.7775738 548.965246,23.3636721 549.311475,22.9036066 C549.655082,22.4438033 550.127213,22.0068197 550.725246,21.592918 C551.276066,21.1790164 551.931803,20.8340984 552.689836,20.5581639 C553.450492,20.2822295 554.242623,20.1442623 555.071475,20.1442623 C556.359344,20.1442623 557.175082,20.4660984 557.518689,21.1100328 C557.864918,21.7539672 557.909508,22.6161311 557.657705,23.6970492 C557.405902,24.7777049 557.001967,26.0081311 556.451148,27.3878033 L553.345574,35.1834754 C553.161967,35.5053115 553.219672,35.7122623 553.518689,35.8043279 C553.817705,35.8961311 554.03541,35.8271475 554.174426,35.597377 C556.013115,32.4238689 557.864918,29.6529836 559.727213,27.284459 C561.589508,24.9156721 563.325902,23.0761967 564.936393,21.7652459 C566.546885,20.4545574 567.879344,19.7993443 568.936393,19.7993443 C570.132459,19.7993443 570.971803,20.1442623 571.454426,20.8340984 C571.937049,21.5239344 572.178361,22.3286557 572.178361,23.2485246 C572.178361,24.0763279 572.028852,24.9272131 571.729836,25.8011803 C571.433443,26.6748852 571.019016,27.3993443 570.48918,27.9742951 C569.959344,28.5489836 569.374426,28.836459 568.72918,28.836459 C568.361967,28.836459 568.086557,28.6179672 567.902951,28.1812459 C567.719344,27.7442623 567.627541,27.1577705 567.627541,26.4220328 C567.627541,25.7321967 567.533115,25.1916066 567.349508,24.8007869 C567.165902,24.4099672 566.822295,24.2142951 566.316066,24.2142951 C565.854426,24.2142951 565.245902,24.5133115 564.487869,25.1113443 C563.729836,25.7091148 562.775082,26.7438689 561.623607,28.2156066 C561.117377,28.9054426 560.451148,29.8483934 559.624918,31.0441967 C558.796066,32.24 557.909508,33.5622295 556.967869,35.0108852 C556.02623,36.459541 555.092459,37.9312787 554.174426,39.4260984 C553.25377,40.920918 552.448525,42.2890492 551.758689,43.5307541 C550.518033,45.7384918 549.631475,47.3481967 549.104262,48.3598689 C548.574426,49.3718033 548.034098,49.8775082 547.483279,49.8775082 Z" id="Fill-8" fill="#35D07F"></path>
            <path d="M589.426885,50.1537049 C588.322623,50.1537049 587.44918,49.8662295 586.803934,49.2912787 C586.161311,48.7163279 585.586885,47.8769836 585.080656,46.7732459 L582.457705,39.460459 C582.182295,38.6788197 581.780984,37.9774426 581.251148,37.3563279 C580.721311,36.7354754 580.068197,36.4251803 579.283934,36.4251803 C578.963934,36.4251803 578.63082,36.7816393 578.28459,37.4945574 C577.940984,38.2072131 577.652459,38.8167869 577.421639,39.3224918 C577.285246,39.6445902 577.064918,40.184918 576.765902,40.9437377 C576.469508,41.7025574 576.13377,42.5419016 575.766557,43.4617705 C575.399344,44.3816393 575.076721,45.2209836 574.801311,45.9798033 C574.525902,46.738623 574.318689,47.2792131 574.179672,47.6010492 C573.904262,48.3367869 573.673443,48.877377 573.489836,49.2222951 C573.30623,49.5672131 572.939016,49.739541 572.385574,49.739541 C572.065574,49.739541 571.685246,49.5902951 571.247213,49.2912787 C570.811803,48.9922623 570.594098,48.6358033 570.594098,48.2219016 C570.594098,47.9918689 570.638689,47.6241311 570.730492,47.1181639 C570.822295,46.6121967 570.961311,46.0144262 571.144918,45.3245902 L582.664918,9.5892459 C582.940328,8.71527869 583.126557,7.97954098 583.218361,7.3815082 C583.310164,6.7837377 583.354754,6.20878689 583.354754,5.65691803 C583.354754,5.10504918 582.848525,4.64498361 581.838689,4.27698361 C581.377049,4.09311475 580.962623,3.92078689 580.59541,3.7597377 C580.228197,3.59868852 580.04459,3.44918033 580.04459,3.31121311 C580.04459,3.12734426 580.078689,2.96629508 580.146885,2.82832787 C580.217705,2.69036066 580.32,2.59829508 580.459016,2.55239344 C580.962623,2.27645902 581.597377,2.00052459 582.35541,1.72459016 C583.113443,1.44865574 583.895082,1.17272131 584.700328,0.896786885 C585.505574,0.620852459 586.229508,0.402360656 586.874754,0.241311475 C587.517377,0.0802622951 587.976393,0 588.254426,0 C588.482623,0 588.723934,0.0228196721 588.978361,0.0689836066 C589.230164,0.114885246 589.356066,0.321836066 589.356066,0.689836066 C589.356066,1.05783607 589.345574,1.33377049 589.321967,1.51763934 C589.300984,1.7015082 589.243279,1.95462295 589.151475,2.27645902 L579.837377,30.6302951 C579.65377,31.136 579.664262,31.3660328 579.871475,31.3201311 C580.078689,31.2739672 580.272787,31.136 580.459016,30.9062295 C582.022295,28.6984918 583.687869,26.7900328 585.458361,25.1803279 C587.231475,23.570623 589.012459,22.317377 590.806557,21.4203279 C592.600656,20.523541 594.255738,20.0752787 595.774426,20.0752787 C596.692459,20.0752787 597.602623,20.3281311 598.497049,20.8340984 C599.394098,21.3400656 599.842623,22.1217049 599.842623,23.179541 C599.842623,24.3753443 599.336393,25.6401311 598.326557,26.9739016 C597.314098,28.3076721 596.060328,29.572459 594.565246,30.7682623 C593.070164,31.9640656 591.530492,33.0103607 589.943607,33.9071475 C588.356721,34.8039344 586.966557,35.4132459 585.770492,35.7353443 C585.356066,35.8271475 585.240656,36.0802623 585.424262,36.4941639 L588.598033,44.0136393 C588.828852,44.4737049 589.138361,44.9219672 589.52918,45.3589508 C589.92,45.7959344 590.368525,46.0144262 590.874754,46.0144262 C591.748197,46.0144262 592.621639,45.6005246 593.497705,44.772459 C594.371148,43.9446557 595.105574,43.0247869 595.703607,42.0131148 C595.934426,41.5992131 596.128525,41.3460984 596.291148,41.2542951 C596.451148,41.1622295 596.624262,41.1163279 596.807869,41.1163279 C596.899672,41.1163279 596.991475,41.2081311 597.083279,41.3922623 C597.175082,41.5761311 597.222295,41.7602623 597.222295,41.9441311 C597.222295,42.6798689 596.923279,43.5079344 596.325246,44.427541 C595.727213,45.3474098 594.990164,46.2441967 594.116721,47.1181639 C593.243279,47.9918689 592.380328,48.7163279 591.530492,49.2912787 C590.680656,49.8662295 589.977705,50.1537049 589.426885,50.1537049 Z M582.182295,34.7003279 C583.60918,34.7003279 585.067541,34.3554098 586.562623,33.6655738 C588.057705,32.9757377 589.450492,32.1248525 590.738361,31.1131803 C592.023607,30.1012459 593.059672,29.0549508 593.841311,27.9742951 C594.622951,26.893377 595.01377,25.9850492 595.01377,25.2493115 C595.01377,24.5592131 594.806557,24.0188852 594.392131,23.6280656 C593.980328,23.2369836 593.358689,23.0415738 592.529836,23.0415738 C591.56459,23.0415738 590.449836,23.4785574 589.185574,24.3522623 C587.921311,25.2262295 586.691148,26.2956066 585.495082,27.5603934 C584.299016,28.824918 583.310164,30.0094426 582.528525,31.1131803 C581.746885,32.216918 581.356066,33.0216393 581.356066,33.5276066 C581.356066,33.803541 581.424262,34.0681967 581.560656,34.3210492 C581.699672,34.5739016 581.906885,34.7003279 582.182295,34.7003279 Z" id="Fill-9" fill="#35D07F"></path>
            <path d="M608.191475,49.739541 C607.22623,49.739541 606.247869,49.3718033 605.259016,48.6358033 C604.270164,47.9000656 603.454426,46.9686557 602.80918,45.8418361 C602.166557,44.7150164 601.843934,43.6228197 601.843934,42.5649836 C601.843934,40.2654426 602.316066,37.8163934 603.257705,35.2178361 C604.201967,32.6192787 605.500328,30.1817705 607.15541,27.9053115 C608.810492,25.6285902 610.733115,23.7660328 612.91541,22.317377 C615.100328,20.868459 617.411148,20.1442623 619.850492,20.1442623 C621.458361,20.1442623 622.712131,20.4776393 623.60918,21.1443934 C624.50623,21.8114098 624.954754,22.7425574 624.954754,23.9383607 C624.954754,25.3641967 624.50623,26.6059016 623.60918,27.6637377 C622.712131,28.7215738 621.505574,29.6299016 619.986885,30.3887213 C618.47082,31.147541 616.779016,31.7799344 614.916721,32.2859016 C613.054426,32.7918689 611.158033,33.2288525 609.224918,33.5965902 C608.949508,33.6427541 608.731803,33.7001967 608.56918,33.7691803 C608.40918,33.8381639 608.283279,34.0104918 608.191475,34.2864262 C607.868852,35.2983607 607.54623,36.4020984 607.22623,37.5979016 C606.903607,38.7937049 606.740984,39.9205246 606.740984,40.9783607 C606.740984,42.5880656 607.053115,43.8297705 607.674754,44.7034754 C608.29377,45.5774426 609.203934,46.0144262 610.397377,46.0144262 C612.055082,46.0144262 613.455738,45.6005246 614.607213,44.772459 C615.756066,43.9446557 616.700328,43.1168525 617.434754,42.2890492 C617.89377,41.783082 618.308197,41.5302295 618.678033,41.5302295 C619.137049,41.5302295 619.367869,41.7602623 619.367869,42.2200656 L619.367869,42.4616393 C619.367869,42.5765246 619.320656,42.6798689 619.228852,42.7719344 C618.308197,44.2895738 617.274754,45.5659016 616.123279,46.6006557 C614.974426,47.6356721 613.744262,48.4173115 612.432787,48.9463607 C611.123934,49.4751475 609.707541,49.739541 608.191475,49.739541 Z M609.707541,32.0099672 C610.21377,32.0099672 611.076721,31.860459 612.296393,31.5614426 C613.513443,31.2626885 614.79082,30.7798033 616.123279,30.1127869 C617.458361,29.4460328 618.596721,28.6179672 619.538361,27.629377 C620.482623,26.6405246 620.954754,25.4562623 620.954754,24.0763279 C620.954754,23.4785574 620.792131,22.9610492 620.469508,22.5243279 C620.149508,22.0873443 619.687869,21.8688525 619.089836,21.8688525 C618.12459,21.8688525 617.078033,22.2712131 615.952787,23.0761967 C614.824918,23.880918 613.754754,24.8466885 612.744918,25.9735082 C611.732459,27.1003279 610.893115,28.1927869 610.226885,29.2503607 C609.558033,30.3081967 609.224918,31.0900984 609.224918,31.5960656 C609.224918,31.872 609.387541,32.0099672 609.707541,32.0099672 Z" id="Fill-10" fill="#35D07F"></path>
            <path d="M628.818361,49.6705574 C628.451148,49.6705574 628.036721,49.5213115 627.575082,49.2222951 C627.116066,48.9232787 626.735738,48.5783607 626.436721,48.187541 C626.140328,47.796459 625.99082,47.44 625.99082,47.1181639 C625.99082,46.3362623 626.093115,45.6695082 626.300328,45.1176393 C626.507541,44.5655082 626.725246,43.9446557 626.956066,43.2548197 L633.508197,24.8354098 C633.6,24.5133115 633.565902,24.2948197 633.405902,24.1799344 C633.245902,24.0650492 633.04918,24.0073443 632.818361,24.0073443 L630.059016,23.869377 C629.460984,23.8234754 629.104262,23.6970492 628.991475,23.4900984 C628.876066,23.2831475 628.818361,23.0877377 628.818361,22.9036066 C628.818361,22.811541 628.93377,22.6392131 629.161967,22.3863607 C629.392787,22.1332459 629.681311,21.8803934 630.024918,21.6272787 C630.371148,21.3744262 630.748852,21.248 631.163279,21.248 L633.647213,21.248 C634.153443,21.248 634.497049,21.1674754 634.680656,21.0064262 C634.866885,20.8456393 635.074098,20.512 635.302295,20.0062951 L636.957377,16.6258361 C637.143607,16.2578361 637.487213,15.8323934 637.993443,15.3495082 C638.499672,14.866623 639.016393,14.4411803 639.54623,14.0731803 C640.073443,13.7054426 640.45377,13.5213115 640.68459,13.5213115 C641.051803,13.5213115 641.282623,13.7744262 641.374426,14.2801311 C641.46623,14.7860984 641.419016,15.2689836 641.23541,15.7290492 L639.441311,20.3512131 C639.349508,20.6730492 639.383607,20.88 639.54623,20.9720656 C639.70623,21.0638689 639.971148,21.1100328 640.338361,21.1100328 C641.259016,21.1100328 642.200656,21.1790164 643.168525,21.3169836 C644.13377,21.4549508 644.91541,21.5698361 645.513443,21.6619016 C646.247869,21.7998689 646.696393,21.949377 646.859016,22.1101639 C647.019016,22.2712131 647.100328,22.466623 647.100328,22.6966557 C647.100328,22.7887213 647.008525,22.9382295 646.824918,23.1451803 C646.638689,23.3521311 646.295082,23.4785574 645.788852,23.524459 C644.776393,23.570623 643.811148,23.6280656 642.890492,23.6970492 C641.972459,23.7660328 641.00459,23.8234754 639.994754,23.869377 C639.257705,23.915541 638.740984,24.0304262 638.441967,24.2142951 C638.142951,24.3984262 637.94623,24.6281967 637.854426,24.9043934 L631.716721,41.8751475 C631.530492,42.4270164 631.438689,42.9099016 631.438689,43.3238033 C631.438689,43.7377049 631.567213,44.0598033 631.819016,44.2895738 C632.07082,44.5196066 632.451148,44.6344918 632.957377,44.6344918 C633.6,44.6344918 634.289836,44.4047213 635.026885,43.9446557 C635.763934,43.4848525 636.474754,42.9558033 637.16459,42.3580328 C637.854426,41.7602623 638.431475,41.2312131 638.890492,40.7714098 C639.396721,40.2654426 639.832131,40.0354098 640.201967,40.0815738 C640.56918,40.1274754 640.752787,40.2885246 640.752787,40.564459 C640.752787,40.8862951 640.637377,41.2427541 640.406557,41.6335738 C640.178361,42.0246557 639.879344,42.4270164 639.512131,42.840918 C638.775082,43.6228197 638.003934,44.3585574 637.198689,45.0486557 C636.396066,45.7384918 635.567213,46.3708852 634.717377,46.9455738 C633.864918,47.5205246 633.059672,48.0034098 632.301639,48.3944918 C631.543607,48.7853115 630.864262,49.0958689 630.26623,49.3256393 C629.668197,49.5556721 629.185574,49.6705574 628.818361,49.6705574 Z" id="Fill-11" fill="#35D07F"></path>
            <path d="M0,102.593574 C0,97.5596066 0.793967213,92.9975082 2.54085246,88.907541 C4.2877377,84.8173115 6.51095082,81.1992131 9.36918033,78.3677377 C12.3863607,75.536 15.8801311,73.1763934 20.008918,71.7605246 C24.1377049,70.187541 28.5841311,69.400918 33.5068852,69.400918 C38.4296393,69.400918 43.0350164,70.0301639 47.1638033,71.6034098 C51.2925902,73.0190164 54.7860984,75.2215082 57.803541,78.2103607 C60.8207213,81.0418361 63.0439344,84.6601967 64.7905574,88.7501639 C66.5374426,92.8401311 67.3314098,97.4022295 67.3314098,102.436197 C67.3314098,107.312787 66.5374426,111.874885 64.7905574,115.807475 C63.0439344,119.897705 60.8207213,123.358426 57.803541,126.190164 C54.7860984,129.021639 51.2925902,131.381246 47.1638033,133.111607 C43.0350164,134.684852 38.4296393,135.471475 33.5068852,135.62859 C28.5841311,135.62859 24.1377049,134.84223 20.008918,133.268984 C15.8801311,131.696 12.3863607,129.493508 9.36918033,126.662033 C6.51095082,123.830295 4.12878689,120.212197 2.54085246,116.279607 C0.793967213,112.032 0,107.470164 0,102.593574 Z M11.9100328,101.806951 C11.9100328,105.110557 12.3863607,108.256787 13.4979672,111.088262 C14.6095738,113.919738 16.0388197,116.436721 17.9443934,118.481836 C19.8499672,120.526951 22.0731803,122.257311 24.7729836,123.358426 C27.4725246,124.616918 30.4897049,125.088787 33.6658361,125.088787 C37.0006557,125.088787 40.0178361,124.459541 42.5586885,123.358426 C45.2582295,122.099934 47.4814426,120.526951 49.3870164,118.481836 C51.2925902,116.436721 52.7218361,113.919738 53.8334426,111.088262 C54.9450492,108.256787 55.421377,105.110557 55.421377,101.806951 C55.421377,98.6607213 54.9450492,95.6718689 53.8334426,92.9975082 C52.8805246,90.3234098 51.2925902,87.963541 49.3870164,85.9186885 C47.4814426,83.8735738 45.0992787,82.3003279 42.5586885,81.0418361 C39.8588852,79.7836066 36.8417049,79.3114754 33.6658361,79.3114754 C30.3310164,79.3114754 27.3138361,79.9407213 24.7729836,81.0418361 C22.0731803,82.1432131 19.8499672,83.7161967 17.9443934,85.9186885 C16.0388197,87.963541 14.6095738,90.3234098 13.4979672,92.9975082 C12.3863607,95.8292459 11.9100328,98.8180984 11.9100328,101.806951 Z" id="Fill-12" fill="#3291E9"></path>
            <path d="M80.1631475,90.6289836 L90.199082,90.6289836 L90.199082,97.0921967 L90.3556721,97.0921967 C91.9239344,94.4123279 93.9624918,92.5206557 96.6281967,91.4171803 C99.2939016,90.1560656 101.959607,89.6831475 105.095869,89.6831475 C108.388984,89.6831475 111.211541,90.3137049 113.877246,91.4171803 C116.543213,92.5206557 118.738361,94.0970492 120.463475,96.1463607 C122.34518,98.1956721 123.756328,100.560262 124.69718,103.239869 C125.638033,105.919738 126.10859,108.914885 126.10859,112.067672 C126.10859,115.220459 125.638033,118.215344 124.540328,120.895213 C123.599475,123.575082 122.188328,125.939672 120.306623,127.988984 C118.58177,130.038295 116.386361,131.614426 113.877246,132.875541 C111.368393,133.979016 108.545836,134.609574 105.566426,134.609574 C103.527869,134.609574 101.803016,134.451934 100.234754,133.979016 C98.6667541,133.506098 97.4121967,133.03318 96.1576393,132.402623 C94.9033443,131.772066 93.9624918,131.141508 93.1782295,130.353574 C92.3942295,129.565377 91.6102295,128.77718 91.1399344,128.146623 L90.8262295,128.146623 L90.8262295,153.841311 L80.1631475,153.841311 L80.1631475,90.6289836 Z M115.288656,112.067672 C115.288656,110.333639 114.974951,108.757246 114.347803,107.180852 C113.877246,105.604459 112.936393,104.343344 111.838689,103.08223 C110.741246,101.821115 109.486689,100.875541 107.918426,100.244984 C106.350426,99.4567869 104.625574,99.1415082 102.743869,99.1415082 C100.862164,99.1415082 98.980459,99.4567869 97.5690492,100.244984 C96.0010492,101.032918 94.7464918,101.978754 93.6487869,103.08223 C92.551082,104.343344 91.767082,105.604459 91.1399344,107.180852 C90.669377,108.757246 90.3556721,110.333639 90.3556721,112.067672 C90.3556721,113.801705 90.669377,115.378098 91.1399344,116.95423 C91.767082,118.530623 92.551082,119.791738 93.6487869,121.052852 C94.7464918,122.313967 96.1576393,123.259803 97.5690492,123.890361 C99.1370492,124.678557 100.862164,124.993836 102.743869,124.993836 C104.625574,124.993836 106.507279,124.678557 107.918426,123.890361 C109.486689,123.102164 110.741246,122.156328 111.838689,121.052852 C112.936393,119.791738 113.720393,118.530623 114.347803,116.95423 C115.131803,115.378098 115.288656,113.644066 115.288656,112.067672 Z" id="Fill-13" fill="#3291E9"></path>
            <path d="M147.879344,116.039607 C148.198557,119.196066 149.474885,121.721443 151.70859,123.457311 C153.942295,125.193443 156.494951,126.140328 159.526557,126.140328 C162.238689,126.140328 164.472393,125.666885 166.22741,124.562098 C168.141902,123.457311 169.737443,122.036984 171.014033,120.300852 L178.831738,126.140328 C176.279082,129.296787 173.566689,131.506361 170.375607,132.769049 C167.184787,134.031475 163.993705,134.66282 160.483672,134.66282 C157.292852,134.66282 154.10177,134.189377 151.229902,133.08459 C148.358033,131.979803 145.805115,130.559475 143.731148,128.507803 C141.656918,126.61377 139.901902,124.246557 138.625574,121.405639 C137.349246,118.564984 136.870557,115.566164 136.870557,112.094164 C136.870557,108.779803 137.508721,105.623344 138.625574,102.940328 C139.901902,100.099672 141.497443,97.7321967 143.731148,95.8384262 C145.805115,93.9443934 148.358033,92.3661639 151.229902,91.261377 C154.10177,90.1565902 157.133115,89.6831475 160.483672,89.6831475 C163.515279,89.6831475 166.22741,90.1565902 168.62059,91.261377 C171.173508,92.2085246 173.247738,93.7867541 175.002754,95.6805246 C176.75777,97.5742951 178.193574,100.099672 179.150951,102.940328 C180.108328,105.781246 180.746492,109.095607 180.746492,112.883148 L180.746492,115.881967 L147.879344,115.881967 L147.879344,116.039607 Z M170.056656,107.99082 C170.056656,104.834361 168.939803,102.308984 167.025311,100.573115 C165.110557,98.679082 162.398164,97.7321967 159.047869,97.7321967 C155.856787,97.7321967 153.144393,98.679082 151.229902,100.573115 C149.315148,102.466885 148.198557,104.834361 147.879344,107.99082 L170.056656,107.99082 Z" id="Fill-14" fill="#3291E9"></path>
            <path d="M194.819672,90.6337049 L205.16223,90.6337049 L205.16223,97.6031475 L205.321443,97.6031475 C206.275934,95.3854426 207.867279,93.6430164 209.935738,92.0592787 C212.004197,90.4752787 214.868197,89.6831475 218.528,89.6831475 C221.392,89.6831475 223.778885,90.1584262 225.847344,91.1087213 C227.915803,92.0592787 229.506885,93.3264262 230.779803,94.9104262 C232.052721,96.4941639 233.007475,98.2365902 233.484852,100.295869 C233.96223,102.354885 234.280393,104.414164 234.280393,106.631607 L234.280393,133.559082 L223.460721,133.559082 L223.460721,111.858623 C223.460721,110.591475 223.460721,109.324328 223.301508,107.898754 C223.142295,106.47318 222.824131,105.047607 222.346754,103.780459 C221.869377,102.513311 221.073836,101.40459 219.960131,100.612459 C218.846164,99.6621639 217.414033,99.3453115 215.504787,99.3453115 C213.754492,99.3453115 212.16341,99.6621639 210.890492,100.295869 C209.617574,100.929311 208.66282,101.721443 207.867279,102.671738 C207.071475,103.622033 206.594361,104.88918 206.116984,106.15659 C205.79882,107.423738 205.639607,108.849311 205.639607,110.274885 L205.639607,133.559082 L194.819672,133.559082 L194.819672,90.6337049 Z" id="Fill-15" fill="#3291E9"></path>
            <path d="M281.329836,84.5387541 C280.062951,82.8041967 278.478689,81.5428197 276.579672,80.7543607 C274.678033,79.9659016 272.461639,79.4927213 270.242623,79.4927213 C268.975738,79.4927213 267.708852,79.650623 266.441967,79.9659016 C265.175082,80.2811803 264.222951,80.7543607 263.116066,81.384918 C262.164721,82.0157377 261.37259,82.9618361 260.739148,83.9079344 C260.105443,84.8540328 259.78859,86.1156721 259.78859,87.5346885 C259.78859,89.7424262 260.580721,91.319082 262.006295,92.423082 C263.43082,93.5268197 265.332459,94.472918 267.551475,95.4190164 C269.767869,96.3651148 272.144262,96.9959344 274.83541,97.7843934 C277.52918,98.5725902 279.905574,99.6765902 282.121967,100.937967 C284.340984,102.357246 286.24,104.091803 287.666885,106.299279 C289.091148,108.506754 289.883279,111.502951 289.883279,115.287344 C289.883279,118.59882 289.251148,121.594754 287.984262,124.27541 C286.717377,126.798426 284.973115,128.848262 282.914098,130.58282 C280.855082,132.317377 278.321311,133.421115 275.627541,134.367213 C272.776393,135.155672 269.925246,135.62859 266.759344,135.62859 C262.798689,135.62859 258.996721,134.998033 255.353705,133.736393 C251.710689,132.475016 248.542426,130.267279 246.008131,127.113705 L254.561574,118.914098 C255.987148,120.963934 257.729574,122.698492 259.947016,123.80223 C262.164721,124.905967 264.540328,125.536787 267.074098,125.536787 C268.340984,125.536787 269.767869,125.379148 271.034754,125.063869 C272.301639,124.748328 273.568525,124.11777 274.678033,123.486951 C275.787541,122.698492 276.579672,121.910033 277.211803,120.806295 C277.846557,119.702557 278.163934,118.440918 278.163934,117.021902 C278.163934,114.656525 277.371803,112.921967 275.944918,111.66059 C274.520656,110.399213 272.619016,109.295213 270.4,108.506754 C268.183607,107.560656 265.807213,106.772197 263.116066,105.984 C260.422295,105.195541 258.046426,104.249443 255.828721,102.830164 C253.611279,101.411148 251.710689,99.6765902 250.284852,97.4688525 C248.859279,95.261377 248.06741,92.2654426 248.06741,88.4807869 C248.06741,85.1695738 248.700852,82.3312787 249.968,79.9659016 C251.393574,77.6005246 253.136,75.5506885 255.195279,74.1316721 C257.412721,72.5547541 259.947016,71.2931148 262.638689,70.504918 C265.489836,69.716459 268.340984,69.400918 271.192131,69.400918 C274.520656,69.400918 277.686557,69.8740984 280.855082,70.9778361 C284.023607,71.9239344 286.874754,73.6584918 289.408525,76.0238689 L281.329836,84.5387541 Z" id="Fill-16" fill="#3291E9"></path>
            <path d="M312.621639,116.039607 C312.939016,119.196066 314.216393,121.721443 316.451148,123.457311 C318.683279,125.193443 321.23541,126.140328 324.267541,126.140328 C326.979672,126.140328 329.214426,125.666885 330.96918,124.562098 C332.883934,123.457311 334.478689,122.036984 335.756066,120.300852 L343.572459,126.140328 C341.020328,129.296787 338.148197,131.506361 335.116066,132.769049 C331.926557,134.031475 328.734426,134.66282 325.224918,134.66282 C322.03541,134.66282 319.003279,134.189377 315.971148,133.08459 C313.099016,131.979803 310.546885,130.559475 308.472131,128.507803 C306.397377,126.61377 304.642623,124.246557 303.367869,121.405639 C302.090492,118.564984 301.613115,115.566164 301.613115,112.094164 C301.613115,108.779803 302.250492,105.623344 303.367869,102.940328 C304.642623,100.099672 306.24,97.7321967 308.472131,95.8384262 C310.546885,93.9443934 313.099016,92.3661639 315.971148,91.261377 C318.843279,90.1565902 321.87541,89.6831475 325.224918,89.6831475 C328.257049,89.6831475 330.96918,90.1565902 333.361311,91.261377 C335.916066,92.2085246 337.988197,93.7867541 339.742951,95.6805246 C341.500328,97.5742951 342.935082,100.099672 343.892459,102.940328 C344.849836,105.781246 345.487213,109.095607 345.487213,112.883148 L345.487213,115.881967 L312.621639,115.881967 L312.621639,116.039607 Z M334.638689,107.99082 C334.638689,104.834361 333.521311,102.308984 331.606557,100.573115 C329.691803,98.679082 326.979672,97.7321967 323.630164,97.7321967 C320.438033,97.7321967 317.725902,98.679082 315.811148,100.573115 C313.896393,102.466885 312.779016,104.834361 312.461639,107.99082 L334.638689,107.99082 Z" id="Fill-17" fill="#3291E9"></path>
            <path d="M385.198689,127.694164 L384.878689,127.694164 C383.28918,130.06977 381.379672,131.970361 378.992787,133.079082 C376.605902,134.187803 373.901639,134.66282 371.037377,134.66282 C369.127869,134.66282 367.058361,134.345967 365.148852,133.870951 C363.239344,133.395934 361.649836,132.604066 360.057705,131.495344 C358.625574,130.386623 357.51082,129.119475 356.556066,127.535738 C355.601311,125.952 355.283934,124.05141 355.283934,121.83423 C355.283934,119.458361 355.761311,117.558033 356.556066,115.974033 C357.353443,114.231869 358.465574,112.964984 359.897705,111.856262 C361.329836,110.747541 362.921967,109.797246 364.831475,109.163803 C366.740984,108.530361 368.650492,108.055082 370.56,107.738492 C372.626885,107.421639 374.696393,107.104787 376.605902,107.104787 C378.672787,106.946623 380.582295,106.946623 382.334426,106.946623 L385.038689,106.946623 L385.038689,105.837902 C385.038689,103.145443 384.083934,101.086426 382.174426,99.819541 C380.264918,98.3939672 377.878033,97.7605246 375.01377,97.7605246 C372.786885,97.7605246 370.56,98.2358033 368.650492,99.0276721 C366.740984,99.819541 364.988852,100.928262 363.556721,102.195148 L357.83082,96.4936393 C360.217705,94.1177705 363.079344,92.2171803 366.103607,91.2671475 C369.285246,90.1584262 372.626885,89.6831475 376.128525,89.6831475 C379.150164,89.6831475 381.697049,90 383.923934,90.7918689 C385.993443,91.4253115 387.742951,92.3756066 389.175082,93.3259016 C390.607213,94.434623 391.561967,95.7015082 392.356721,97.127082 C393.154098,98.5523934 393.631475,99.9779672 393.948852,101.403279 C394.26623,102.82859 394.58623,104.254164 394.58623,105.679475 C394.58623,106.946623 394.743607,108.213508 394.743607,109.163803 L394.743607,133.554098 L385.038689,133.554098 L385.038689,127.694164 L385.198689,127.694164 Z M384.561311,114.390295 L382.334426,114.390295 C380.902295,114.390295 379.150164,114.390295 377.240656,114.548721 C375.331148,114.707148 373.581639,115.023738 371.992131,115.499016 C370.4,115.974033 368.967869,116.607738 367.853115,117.399607 C366.740984,118.191475 366.103607,119.458361 366.103607,121.042361 C366.103607,121.992656 366.263607,122.942689 366.740984,123.576393 C367.218361,124.209836 367.853115,124.843279 368.490492,125.318557 C369.285246,125.793574 370.082623,126.110426 370.877377,126.427279 C371.832131,126.585443 372.626885,126.743869 373.581639,126.743869 C377.240656,126.743869 379.947541,125.952 381.697049,124.209836 C383.446557,122.467672 384.401311,119.933639 384.401311,116.924328 L384.401311,114.390295 L384.561311,114.390295 Z" id="Fill-18" fill="#3291E9"></path>
        </g>
    </g>
</svg>